<?xml version="1.0" encoding="UTF-8" standalone="no"?>
<svg
   xmlns:dc="http://purl.org/dc/elements/1.1/"
   xmlns:cc="http://creativecommons.org/ns#"
   xmlns:rdf="http://www.w3.org/1999/02/22-rdf-syntax-ns#"
   xmlns:svg="http://www.w3.org/2000/svg"
   xmlns="http://www.w3.org/2000/svg"
   xmlns:xlink="http://www.w3.org/1999/xlink"
   xmlns:sodipodi="http://sodipodi.sourceforge.net/DTD/sodipodi-0.dtd"
   xmlns:inkscape="http://www.inkscape.org/namespaces/inkscape"
   version="1.1"
   x="0px"
   y="0px"
   width="512px"
   height="512px"
   viewBox="0 0 512 512"
   style="enable-background:new 0 0 512 512;"
   xml:space="preserve"
   id="svg17"
   sodipodi:docname="beerIcon.svg"
   inkscape:version="1.0.2-2 (e86c870879, 2021-01-15)"
   inkscape:export-filename="C:\Users\Bowski\source\repos\BeerTrackerFlutter\beer_tracker\android\app\src\main\res\mipmap-mdpi\ic_launcher.png"
   inkscape:export-xdpi="12.000001"
   inkscape:export-ydpi="12.000001"><metadata
   id="metadata23"><rdf:RDF><cc:Work
       rdf:about=""><dc:format>image/svg+xml</dc:format><dc:type
         rdf:resource="http://purl.org/dc/dcmitype/StillImage" /><dc:title></dc:title></cc:Work></rdf:RDF></metadata><defs
   id="defs21"><inkscape:path-effect
     effect="powerclip"
     id="path-effect250"
     is_visible="true"
     lpeversion="1"
     inverse="true"
     flatten="false"
     hide_clip="false"
     message="Use fill-rule evenodd on &lt;b&gt;fill and stroke&lt;/b&gt; dialog if no flatten result after convert clip to paths." /><filter
     style="color-interpolation-filters:sRGB;"
     inkscape:label="Lightness-Contrast"
     id="filter114616"><feColorMatrix
       values="1 0 0 -0.03 -0 0 1 0 -0.03 -0 0 0 1 -0.03 -0 0 0 0 1 0"
       id="feColorMatrix114614" /></filter><filter
     style="color-interpolation-filters:sRGB;"
     inkscape:label="Lightness-Contrast"
     id="filter114668"><feColorMatrix
       values="1 0 0 -0.05 -0 0 1 0 -0.05 -0 0 0 1 -0.05 -0 0 0 0 1 0"
       id="feColorMatrix114666" /></filter><clipPath
     clipPathUnits="userSpaceOnUse"
     id="clipPath114676"><use
       x="0"
       y="0"
       xlink:href="#g114672"
       id="use114678" /></clipPath><clipPath
     clipPathUnits="userSpaceOnUse"
     id="clipPath107"><g
       inkscape:label="Clip"
       id="use109"><use
         x="0"
         y="0"
         xlink:href="#g114684"
         id="use118"
         width="100%"
         height="100%" /></g></clipPath><clipPath
     clipPathUnits="userSpaceOnUse"
     id="clipPath234"><g
       id="g248"
       clip-path="none"
       transform="translate(-1,-16)"
       style="display:none"><g
         inkscape:label="Clip"
         id="g246"><g
           id="g244"
           clip-path="url(#clipPath114676)"><g
             inkscape:label="Clip"
             id="g242"><rect
               style="fill:#ffffff"
               id="rect236"
               width="25"
               height="10"
               x="261"
               y="251"
               d="m 261,251 h 25 v 10 h -25 z" /><rect
               style="fill:#ffffff"
               id="rect238"
               width="10"
               height="63"
               x="251"
               y="226"
               d="m 251,226 h 10 v 63 h -10 z" /><rect
               style="fill:#ffffff"
               id="rect240"
               width="25"
               height="10"
               x="226"
               y="251"
               d="m 226,251 h 25 v 10 h -25 z" /></g></g></g></g><path
       id="lpe_path-effect250"
       class="powerclip"
       d="M 191.05751,148.74201 H 321.3869 v 279.61 H 191.05751 Z M 261,251 v 10 h 25 v -10 z m -10,-25 v 63 h 10 v -63 z m -25,25 v 10 h 25 v -10 z" /></clipPath></defs><sodipodi:namedview
   pagecolor="#ffffff"
   bordercolor="#666666"
   borderopacity="1"
   objecttolerance="10"
   gridtolerance="10"
   guidetolerance="10"
   inkscape:pageopacity="0"
   inkscape:pageshadow="2"
   inkscape:window-width="2560"
   inkscape:window-height="1377"
   id="namedview19"
   showgrid="true"
   inkscape:zoom="0.5"
   inkscape:cx="256"
   inkscape:cy="256"
   inkscape:window-x="1672"
   inkscape:window-y="-8"
   inkscape:window-maximized="1"
   inkscape:current-layer="Layer_3"
   inkscape:document-rotation="0"><inkscape:grid
     type="xygrid"
     id="grid114559" /></sodipodi:namedview>
<g
   id="Guides_For_Artboard">
</g>
<g
   id="Artwork">
</g>
<g
   id="Layer_3">
	<circle
   style="fill:#FF5722"
   id="path56"
   cx="255"
   cy="255"
   r="215" /><g
   id="g14">
		
		<g
   id="g12">
			<path
   style="fill:#ffffff;filter:url(#filter114616)"
   d="m 255.99958,128.45401 v 0 h 0.002 c 33.825,-0.027 67.872,2.018 68.407,6.136 0.055,0.417 0.094,0.838 0.145,1.256 -0.246,-11.851 -7.213,-22.061 -17.291,-27.036 -3.84,-10.46701 -13.973,-17.94401 -25.869,-17.94401 -0.439,0 -0.875,0.013 -1.309,0.033 -5.04,-5.613 -12.385,-9.153 -20.566,-9.153 -8.329,0 -15.787,3.669 -20.834,9.458 -1.41,-0.221 -2.855,-0.338 -4.329,-0.338 -11.199,0 -20.829,6.63 -25.125,16.13901 -12.447,3.893 -21.506,15.303 -21.783,28.85 0.051,-0.421 0.091,-0.845 0.146,-1.265 0.534,-4.119 34.581,-6.164 68.406,-6.136 z"
   id="path6"
   transform="matrix(1,0,0,1.033099,0,-2.7057136)" />
			<path
   style="fill:#eaebec;filter:url(#filter114668)"
   d="m 310.94558,402.77901 c 0,0 -0.003,0 -0.004,0 -1.584,-13.299 -3.691,-22.265 -5.646,-35.608 -1.955,-13.343 -5.858,-53.009 1.822,-84.215 10.04,-40.781 19.291,-74.395 18.874,-115.943 -0.104,-10.354 -0.201,-20.896 -1.438,-31.167 -0.051,-0.418 -0.09,-0.839 -0.145,-1.256 -0.535,-4.119 -34.582,-6.164 -68.407,-6.136 h -10e-4 -0.001 c -33.825,-0.027 -67.872,2.018 -68.407,6.136 -0.055,0.42 -0.095,0.844 -0.146,1.265 -1.236,10.267 -1.333,20.807 -1.438,31.158 -0.417,41.549 8.834,75.162 18.874,115.943 7.681,31.207 3.776,70.872 1.822,84.215 -1.954,13.343 -4.062,22.309 -5.646,35.608 -0.001,0 -0.003,0 -0.003,0 -0.308,3.637 -0.678,9.045 -0.68,9.352 -0.001,0.174 0.003,1.122 0.011,1.415 0,0.004 0.001,0.013 0.001,0.013 0.023,0.946 0.078,1.84 0.173,2.663 1.439,12.483 31.437,14.032 53.447,14.032 0.453,0 0.879,-0.005 1.324,-0.006 0.224,0 0.446,10e-4 0.666,0.003 h 0.001 0.001 c 0.22,-0.001 0.442,-0.002 0.666,-0.003 0.445,10e-4 0.871,0.006 1.324,0.006 22.011,0 52.008,-1.549 53.447,-14.032 0.095,-0.822 0.149,-1.717 0.173,-2.663 0,0 0.001,-0.009 0.001,-0.013 0.008,-0.293 0.012,-1.241 0.011,-1.415 0,-0.307 -0.37,-5.715 -0.676,-9.352 z m -7.874,6.03 c 0,0.004 0,0.012 0,0.012 -0.021,0.823 -0.066,1.602 -0.147,2.317 -1.218,10.866 -26.591,12.214 -45.208,12.214 -0.384,0 -0.744,-0.004 -1.12,-0.005 -0.116,0 -0.23,10e-4 -0.346,0.002 -0.114,-0.001 -0.229,-0.001 -0.345,-0.002 -0.376,10e-4 -0.737,0.005 -1.12,0.005 -18.618,0 -43.991,-1.348 -45.209,-12.214 -0.08,-0.715 -0.126,-1.494 -0.146,-2.317 0,0 -0.001,-0.008 -0.001,-0.012 -0.007,-0.255 -0.009,-1.08 -0.009,-1.231 0.002,-0.267 0.314,-4.975 0.575,-8.141 0,0 0.001,0 0.002,0 1.34,-11.576 4.095,-19.38 5.747,-30.996 1.653,-11.615 6.085,-47.362 -0.412,-74.526 -4.89,-20.44 -13.796,-56.629 -17.099,-86.754 -2.432,-22.191 -2.405,-44.142 -1.907,-48.079 0.449,-3.559 31.481,-5.338 59.924,-5.34 28.442,0.002 59.476,1.782 59.925,5.34 0.498,3.938 0.252,28.476 -2.181,50.667 -3.302,30.125 -11.936,63.726 -16.825,84.167 -6.497,27.164 -2.066,62.911 -0.412,74.526 1.652,11.615 4.406,19.419 5.746,30.996 0.002,0 0.004,0 0.004,0 0.26,3.166 0.572,7.874 0.574,8.141 -10e-4,0.15 -0.003,0.975 -0.01,1.23 z"
   id="path8" />
			<path
   style="fill:#e6a52e"
   d="m 302.50258,399.43801 c -1.34,-11.576 -4.094,-19.38 -5.746,-30.996 -1.654,-11.615 -6.085,-47.362 0.412,-74.526 4.89,-20.44 13.523,-54.042 16.825,-84.167 2.433,-22.191 2.679,-46.729 2.181,-50.667 -0.449,-3.559 -31.482,-5.338 -59.925,-5.34 -28.442,0.002 -59.475,1.782 -59.924,5.34 -0.498,3.938 -0.524,25.888 1.907,48.079 3.303,30.125 12.209,66.314 17.099,86.754 6.497,27.164 2.065,62.911 0.412,74.526 -1.652,11.615 -4.407,19.419 -5.747,30.996 -0.001,0 -0.002,0 -0.002,0 -0.261,3.166 -0.573,7.874 -0.575,8.141 0,0.151 0.002,0.976 0.009,1.231 0,0.004 10e-4,0.012 10e-4,0.012 0.021,0.823 0.066,1.602 0.146,2.317 1.218,10.866 26.591,12.214 45.209,12.214 0.383,0 0.744,-0.004 1.12,-0.005 0.115,0 0.23,10e-4 0.345,0.002 0.115,-0.001 0.229,-0.001 0.346,-0.002 0.376,10e-4 0.736,0.005 1.12,0.005 18.617,0 43.99,-1.348 45.208,-12.214 0.081,-0.715 0.126,-1.494 0.147,-2.317 0,0 0,-0.008 0,-0.012 0.008,-0.255 0.01,-1.08 0.01,-1.231 -0.002,-0.267 -0.314,-4.975 -0.574,-8.141 0,0.001 -0.002,0.001 -0.004,0.001 z"
   id="path10"
   inkscape:original-d="m 302.50258,399.43801 c -1.34,-11.576 -4.094,-19.38 -5.746,-30.996 -1.654,-11.615 -6.085,-47.362 0.412,-74.526 4.89,-20.44 13.523,-54.042 16.825,-84.167 2.433,-22.191 2.679,-46.729 2.181,-50.667 -0.449,-3.559 -31.482,-5.338 -59.925,-5.34 -28.442,0.002 -59.475,1.782 -59.924,5.34 -0.498,3.938 -0.524,25.888 1.907,48.079 3.303,30.125 12.209,66.314 17.099,86.754 6.497,27.164 2.065,62.911 0.412,74.526 -1.652,11.615 -4.407,19.419 -5.747,30.996 -0.001,0 -0.002,0 -0.002,0 -0.261,3.166 -0.573,7.874 -0.575,8.141 0,0.151 0.002,0.976 0.009,1.231 0,0.004 10e-4,0.012 10e-4,0.012 0.021,0.823 0.066,1.602 0.146,2.317 1.218,10.866 26.591,12.214 45.209,12.214 0.383,0 0.744,-0.004 1.12,-0.005 0.115,0 0.23,10e-4 0.345,0.002 0.115,-0.001 0.229,-0.001 0.346,-0.002 0.376,10e-4 0.736,0.005 1.12,0.005 18.617,0 43.99,-1.348 45.208,-12.214 0.081,-0.715 0.126,-1.494 0.147,-2.317 0,0 0,-0.008 0,-0.012 0.008,-0.255 0.01,-1.08 0.01,-1.231 -0.002,-0.267 -0.314,-4.975 -0.574,-8.141 0,0.001 -0.002,0.001 -0.004,0.001 z"
   clip-path="url(#clipPath234)"
   inkscape:path-effect="#path-effect250"
   transform="matrix(1.011,0,0,1.01,-2.8184442,-2.8854701)" />
		</g>
	</g>
</g>
</svg>
